<?xml version="1.0" encoding="UTF-8"?>
<svg xmlns="http://www.w3.org/2000/svg" width="67" height="68" viewBox="0 0 67 68" fill="none">
  <path d="M16.542 52.7568L29.5768 24.8387H25.4531L12.1339 52.9938C12.9397 54.0365 15.5466 51.8562 16.542 52.7568Z" fill="#0E9849"></path>
  <path d="M23.6513 24.3637H19.5275L8.29395 48.0159C9.05233 49.2483 9.81072 50.6702 10.7113 51.8078L23.6513 24.3637Z" fill="#2B5BA8"></path>
  <path d="M36.3551 41.3298L23.6047 24.4083H19.481L32.2314 41.3298H36.3551Z" fill="#204E83"></path>
  <path d="M36.4492 41.4274H32.1833L19.3855 24.3637H23.6514L36.4492 41.4274ZM32.2307 41.2852H36.2122L23.5566 24.4585H19.5751L32.2307 41.2852Z" fill="white"></path>
  <path d="M19.3871 59.5801L14.4102 60.9072L31.6161 24.5995H35.7398L19.3871 59.5801Z" fill="#BB9271"></path>
  <path d="M14.2684 61.0489L31.6165 24.5515H35.8824L35.835 24.6463L19.4349 59.6269L14.2684 61.0489ZM31.6639 24.6463L14.5054 60.8119L19.3401 59.4847L35.6454 24.6463H31.6639Z" fill="white"></path>
  <path d="M42.2339 41.6136L29.5309 24.6921H25.3598L38.1102 41.6136H42.2339Z" fill="#066032"></path>
  <path d="M42.3742 41.7106H38.1083V41.6632L25.3105 24.5995H29.5765V24.6469L42.3742 41.7106ZM38.1557 41.5684H42.1373L29.4817 24.7417H25.5001L38.1557 41.5684Z" fill="white"></path>
  <path d="M46.4986 19.9071L52.8027 6.39832H48.679L32.3737 41.3315H36.4974L45.5506 21.803L46.4986 19.9071Z" fill="#2B5BA8"></path>
  <path d="M36.5456 41.379H32.2797L32.3271 41.2842L48.6324 6.35101H52.8984L52.851 6.44581L46.5469 19.9546L45.6463 21.8505L36.5456 41.379ZM32.4693 41.2368H36.4508L45.5041 21.7557L46.4047 19.8598L52.6614 6.44581H48.6798L32.4693 41.2368Z" fill="white"></path>
  <path d="M48.4428 41.6164L35.6924 24.6475H31.5687L44.319 41.6164H48.4428Z" fill="#A58063"></path>
  <path d="M48.6313 41.6626H44.318L44.2706 41.6152L31.4254 24.5515H35.7387L35.7861 24.5989L48.6313 41.6626ZM44.3654 41.5205H48.2995L35.6913 24.7411H31.7572L44.3654 41.5205Z" fill="white"></path>
  <path d="M33.2742 0C14.8833 0 0 14.8833 0 33.2742C0 40.4789 2.27516 47.1148 6.16189 52.5657C6.96768 53.7033 7.82086 54.7934 8.76885 55.7888L8.81625 55.8362L10.807 51.5229L10.7596 51.4755C9.85903 50.3379 9.05324 49.2003 8.29486 47.9206C5.7353 43.6072 4.31333 38.5829 4.31333 33.2268C4.31333 17.2533 17.2533 4.26593 33.2742 4.26593C39.8627 4.26593 45.8824 6.39889 50.7171 10.1434L52.8027 6.25669C47.3518 2.36996 40.5263 0 33.2742 0Z" fill="#2B5BA8"></path>
  <mask id="mask0_445_21989" style="mask-type:luminance" maskUnits="userSpaceOnUse" x="58" y="11" width="3" height="4">
    <path d="M58.3004 11.9423C58.964 12.748 59.7224 13.696 60.3386 14.5966C59.7224 13.6486 59.0114 12.7954 58.3004 11.9423Z" fill="white"></path>
  </mask>
  <g mask="url(#mask0_445_21989)">
    <path d="M61.3825 12.4158L59.9605 15.4019L57.2587 14.0747L58.6807 11.136L61.3825 12.4158Z" fill="url(#paint0_linear_445_21989)"></path>
  </g>
  <mask id="mask1_445_21989" style="mask-type:luminance" maskUnits="userSpaceOnUse" x="58" y="19" width="1" height="1">
    <path d="M58.3497 19.6725C58.3971 19.7673 58.4445 19.8147 58.4919 19.9095C58.4445 19.8147 58.3971 19.7199 58.3497 19.6725Z" fill="white"></path>
  </mask>
  <g mask="url(#mask1_445_21989)">
    <path d="M58.5385 19.718L58.4438 19.955L58.2542 19.8602L58.3489 19.6232L58.5385 19.718Z" fill="url(#paint1_linear_445_21989)"></path>
  </g>
  <path d="M60.8121 15.1169C60.7173 14.9273 60.5751 14.7851 60.4803 14.5955C59.8641 13.6949 59.1057 12.7469 58.4421 11.9412C58.3947 11.8938 58.3473 11.799 58.2999 11.7516L57.6363 13.2209L56.2144 16.3493C56.878 17.2499 57.9207 18.6718 58.4895 19.7146C58.5369 19.8094 58.5843 19.8568 58.6317 19.9516C60.9069 24.0753 62.1867 28.8153 62.1867 33.7922C62.1867 49.7657 49.2467 62.7531 33.2258 62.7531C26.9217 62.7531 21.0916 60.7149 16.3043 57.3022L14.3609 61.2363C19.717 64.9334 26.2581 67.0664 33.2258 67.0664C51.6166 67.0664 66.5 52.183 66.5 33.7922C66.4052 26.9667 64.3196 20.473 60.8121 15.1169Z" fill="#BB9271"></path>
  <path d="M50.3845 24.4094L51.1429 22.8452L53.1337 18.3897C52.3279 17.2995 51.6643 15.7827 50.6689 14.8821L48.0145 20.6648L47.1614 22.466L38.1555 41.7101H42.2792L50.3845 24.4094Z" fill="#0A9D49"></path>
  <path d="M42.3751 41.709H38.1092L47.9682 20.6164L50.6226 14.7389L50.67 14.7863C51.2862 15.4025 51.8076 16.2083 52.2815 16.9667C52.5659 17.4406 52.8503 17.9146 53.1347 18.2938V18.3412V18.3886L51.144 22.8441L42.3751 41.709ZM38.3462 41.5668H42.3277L51.0966 22.7967L53.0873 18.3412C52.8029 17.9146 52.5185 17.488 52.2341 17.014C51.7602 16.2557 51.2862 15.4973 50.7174 14.8811L48.1104 20.6164L47.2572 22.4176L38.3462 41.5668Z" fill="white"></path>
  <path d="M54.651 15.3095C53.7978 14.3141 52.8498 13.3661 51.8544 12.4655L51.096 14.0771L50.1954 15.9731C51.1908 16.9211 52.0914 17.9164 52.8972 19.054C55.9781 23.1778 57.7793 28.2495 57.7793 33.7952C57.7793 47.3987 46.7353 58.4901 33.0843 58.4901C26.875 58.4901 21.1871 56.1676 16.8264 52.3756C15.831 51.4751 14.883 50.5271 14.0299 49.5317L12.3709 52.5652C12.3709 52.6126 11.9917 53.0392 11.9917 53.0866C12.8923 54.0346 14.1247 55.03 15.1674 55.8358C20.0496 59.8173 26.2588 62.1873 33.0369 62.1873C48.6787 62.1873 61.3816 49.4843 61.3816 33.8426C61.4764 26.6853 58.9169 20.239 54.651 15.3095Z" fill="#0A9D49"></path>
  <path d="M58.6315 19.2899C58.0153 18.2471 56.9725 16.8251 56.3563 15.9245V15.9719L52.8014 23.461L52.043 25.0726L44.3643 41.5201H48.4881L58.7737 19.4795C58.7263 19.4321 58.6789 19.3373 58.6315 19.2899Z" fill="#BB9271"></path>
  <path d="M47.2574 20.5218L43.3232 23.3657L45.7406 23.8397L47.3996 25.2143L47.2574 20.5218Z" fill="white"></path>
  <path d="M52.0915 22.8937L48.2522 25.5955L50.6222 26.1169L52.1389 27.681L52.0915 22.8937Z" fill="white"></path>
  <path d="M45.9302 37.775L43.892 42.3727" stroke="white" stroke-width="0.160798" stroke-miterlimit="10"></path>
  <defs>
    <linearGradient id="paint0_linear_445_21989" x1="68.4595" y1="-5.71731" x2="18.0435" y2="98.762" gradientUnits="userSpaceOnUse">
      <stop stop-color="#89683A"></stop>
      <stop offset="0.0131004" stop-color="#89683A"></stop>
      <stop offset="0.2489" stop-color="#B28B5D"></stop>
      <stop offset="0.4978" stop-color="#E8CD8C"></stop>
      <stop offset="0.7249" stop-color="#B28B5D"></stop>
      <stop offset="0.9389" stop-color="#89683A"></stop>
      <stop offset="1" stop-color="#89683A"></stop>
    </linearGradient>
    <linearGradient id="paint1_linear_445_21989" x1="70.2625" y1="-4.84287" x2="19.8471" y2="99.6366" gradientUnits="userSpaceOnUse">
      <stop stop-color="#89683A"></stop>
      <stop offset="0.0131004" stop-color="#89683A"></stop>
      <stop offset="0.2489" stop-color="#B28B5D"></stop>
      <stop offset="0.4978" stop-color="#E8CD8C"></stop>
      <stop offset="0.7249" stop-color="#B28B5D"></stop>
      <stop offset="0.9389" stop-color="#89683A"></stop>
      <stop offset="1" stop-color="#89683A"></stop>
    </linearGradient>
  </defs>
</svg>
